<svg xmlns="http://www.w3.org/2000/svg" xmlns:xlink="http://www.w3.org/1999/xlink" width="700" height="500">
<defs>
<style type="text/css"><![CDATA[
  .borderLine {
	   stroke: none;
	   fill-opacity:  0.5 ;
  }
  .outLine {
	   stroke-width:  2 ;
	   fill: none;
  }
  .circle {
	   stroke: #888888;
	   stroke-width: 0.5;
	   fill: none;
    pointer-events: all;
  }
  .nLabel {
	   font-family: Arial;
    pointer-events: none;
	   font-size: 30px;
	   text-anchor: middle;
	   alignment-baseline: central;
  }
  .belong { 
 display: none;
	   font-family: Arial;
    pointer-events: none;
	   font-size: 15px;
	   text-anchor: middle;
	   alignment-baseline: central;
  }
  .legend {
    font-family: Arial;
    font-size: 15px;
  }
  #legendBox {
    display:  inline ;
  }
  .p0{
    stroke: none;
    fill:  #6c9cff ;
  }
  .q0{
    fill: none;
    stroke:  #6c9cff ;
  }
  .p1{
    stroke: none;
    fill:  #72ba78 ;
  }
  .q1{
    fill: none;
    stroke:  #72ba78 ;
  }
  .p2{
    stroke: none;
    fill:  #7c7c7c ;
  }
  .q2{
    fill: none;
    stroke:  #7c7c7c ;
  }
]]>
</style>
<symbol id="bl0">
<path d="M 206.38 333.67 L 201.12 335.85 L 195.68 337.53 L 190.11 338.73 L 184.46 339.41 L 178.77 339.57 L 173.08 339.23 L 167.46 338.36 L 161.93 336.99 L 156.54 335.14 L 151.35 332.80 L 146.37 330.02 L 141.64 326.82 L 137.16 323.26 L 132.89 319.42 L 128.76 315.40 L 124.72 311.28 L 120.74 307.11 L 116.79 302.91 L 112.84 298.71 L 108.91 294.49 L 104.97 290.28 L 101.04 286.07 L 97.10 281.85 L 93.17 277.64 L 89.24 273.43 L 85.30 269.21 L 81.37 265.00 L 77.44 260.79 L 73.51 256.57 L 69.58 252.36 L 65.65 248.14 L 61.72 243.93 L 57.79 239.72 L 53.87 235.50 L 49.94 231.29 L 46.03 227.07 L 42.13 222.82 L 38.28 218.55 L 34.50 214.20 L 30.85 209.74 L 27.37 205.16 L 24.12 200.42 L 21.17 195.50 L 18.53 190.41 L 16.22 185.16 L 14.26 179.77 L 12.67 174.26 L 11.44 168.66 L 10.58 162.99 L 10.10 157.28 L 10.00 151.54 L 10.28 145.81 L 10.93 140.11 L 11.96 134.47 L 13.36 128.90 L 15.13 123.45 L 17.24 118.12 L 19.71 112.94 L 22.52 107.93 L 25.64 103.12 L 29.08 98.53 L 32.82 94.17 L 36.83 90.08 L 41.10 86.26 L 45.62 82.72 L 50.36 79.49 L 55.30 76.59 L 60.43 74.02 L 65.71 71.79 L 71.13 69.92 L 76.66 68.40 L 82.27 67.25 L 87.95 66.45 L 93.68 65.99 L 99.42 65.84 L 105.16 65.95 L 110.91 66.24 L 116.66 66.65 L 122.40 67.11 L 128.15 67.59 L 133.89 68.08 L 139.64 68.56 L 145.39 69.05 L 151.14 69.55 L 156.89 70.04 L 162.64 70.53 L 168.39 71.02 L 174.14 71.51 L 179.90 72.00 L 185.65 72.50 L 191.40 72.99 L 197.15 73.49 L 202.90 74.02 L 208.65 74.62 L 214.38 75.37 L 220.07 76.37 L 225.68 77.74 L 231.13 79.61 L 236.30 82.09 L 241.10 85.28 L 245.46 89.20 L 249.35 93.84 L 252.80 99.10 L 255.94 104.75 L 258.95 110.53 L 261.96 116.22 L 265.02 121.78 L 268.12 127.24 L 271.25 132.64 L 274.39 138.03 L 277.52 143.41 L 280.66 148.79 L 283.77 154.16 L 286.84 159.55 L 289.77 164.97 L 292.41 170.44 L 294.60 176.00 L 296.19 181.70 L 297.17 187.58 L 297.48 193.71 L 296.99 200.18 L 295.52 206.94 L 293.05 213.86 L 289.69 220.75 L 285.72 227.53 L 281.38 234.21 L 276.89 240.84 L 272.34 247.45 L 267.77 254.05 L 263.21 260.66 L 258.68 267.27 L 254.24 273.90 L 249.96 280.53 L 245.94 287.12 L 242.22 293.56 L 238.80 299.75 L 235.52 305.58 L 232.20 310.99 L 228.66 315.92 L 224.83 320.37 L 220.68 324.37 L 216.20 327.92 L 211.42 331.02 Z" />
</symbol>
<symbol id="bl1">
<path d="M 352.04 223.46 L 346.91 224.67 L 341.57 225.63 L 336.18 226.50 L 330.86 227.38 L 325.65 228.29 L 320.50 229.26 L 315.39 230.23 L 310.30 231.21 L 305.21 232.20 L 300.12 233.19 L 295.03 234.18 L 289.94 235.17 L 284.85 236.15 L 279.76 237.13 L 274.66 238.09 L 269.56 238.98 L 264.44 239.73 L 259.30 240.25 L 254.14 240.44 L 248.99 240.22 L 243.92 239.53 L 238.97 238.31 L 234.24 236.59 L 229.79 234.41 L 225.67 231.82 L 221.88 228.91 L 218.41 225.74 L 215.27 222.35 L 212.49 218.77 L 210.08 214.99 L 208.00 211.07 L 206.20 207.03 L 204.60 202.89 L 203.13 198.71 L 201.71 194.50 L 200.32 190.29 L 198.93 186.08 L 197.54 181.86 L 196.15 177.64 L 194.76 173.43 L 193.38 169.21 L 191.99 164.99 L 190.61 160.78 L 189.22 156.56 L 187.83 152.33 L 186.44 148.08 L 185.05 143.77 L 183.65 139.35 L 182.26 134.75 L 180.95 129.95 L 179.85 125.02 L 179.13 120.07 L 178.91 115.20 L 179.26 110.46 L 180.17 105.87 L 181.62 101.46 L 183.58 97.26 L 186.01 93.31 L 188.85 89.62 L 192.02 86.19 L 195.44 82.98 L 199.01 79.95 L 202.69 77.04 L 206.42 74.21 L 210.18 71.41 L 213.94 68.62 L 217.71 65.84 L 221.48 63.06 L 225.25 60.27 L 229.02 57.49 L 232.79 54.71 L 236.56 51.93 L 240.33 49.16 L 244.10 46.38 L 247.87 43.60 L 251.63 40.82 L 255.41 38.05 L 259.18 35.27 L 262.95 32.50 L 266.74 29.75 L 270.56 27.05 L 274.43 24.42 L 278.38 21.90 L 282.42 19.55 L 286.57 17.43 L 290.84 15.57 L 295.23 14.00 L 299.71 12.75 L 304.27 11.81 L 308.89 11.20 L 313.54 10.91 L 318.19 10.95 L 322.84 11.32 L 327.44 12.03 L 331.98 13.06 L 336.44 14.40 L 340.80 16.06 L 345.02 18.02 L 349.10 20.27 L 353.00 22.81 L 356.72 25.62 L 360.23 28.68 L 363.51 31.99 L 366.55 35.51 L 369.33 39.25 L 371.84 43.17 L 374.07 47.26 L 376.00 51.50 L 377.63 55.86 L 378.96 60.32 L 380.00 64.87 L 380.77 69.47 L 381.29 74.11 L 381.64 78.78 L 381.89 83.46 L 382.08 88.14 L 382.26 92.83 L 382.43 97.52 L 382.59 102.21 L 382.76 106.89 L 382.93 111.59 L 383.09 116.28 L 383.26 120.97 L 383.43 125.66 L 383.59 130.35 L 383.76 135.04 L 383.92 139.73 L 384.08 144.42 L 384.25 149.12 L 384.41 153.81 L 384.57 158.50 L 384.73 163.19 L 384.86 167.89 L 384.93 172.58 L 384.89 177.26 L 384.63 181.94 L 384.09 186.59 L 383.19 191.17 L 381.90 195.65 L 380.16 199.96 L 378.00 204.07 L 375.41 207.92 L 372.42 211.47 L 369.06 214.68 L 365.34 217.51 L 361.27 219.91 L 356.84 221.89 Z" />
</symbol>
<symbol id="bl2">
<path d="M 489.73 365.39 L 489.07 372.56 L 488.02 379.69 L 486.59 386.75 L 484.76 393.72 L 482.57 400.59 L 480.00 407.32 L 477.07 413.90 L 473.78 420.31 L 470.15 426.54 L 466.18 432.55 L 461.90 438.35 L 457.30 443.90 L 452.41 449.20 L 447.23 454.22 L 441.80 458.95 L 436.11 463.38 L 430.18 467.49 L 424.05 471.28 L 417.72 474.72 L 411.20 477.81 L 404.53 480.55 L 397.72 482.91 L 390.80 484.91 L 383.77 486.52 L 376.67 487.75 L 369.51 488.59 L 362.32 489.04 L 355.11 489.09 L 347.92 488.75 L 340.75 488.03 L 333.63 486.91 L 326.58 485.40 L 319.63 483.52 L 312.80 481.25 L 306.09 478.62 L 299.54 475.63 L 293.16 472.28 L 286.97 468.60 L 280.98 464.59 L 275.20 460.30 L 269.60 455.74 L 264.18 450.99 L 258.88 446.07 L 253.69 441.05 L 248.55 435.98 L 243.44 430.87 L 238.34 425.76 L 233.24 420.63 L 228.14 415.51 L 223.04 410.39 L 217.94 405.26 L 212.84 400.14 L 207.74 395.01 L 202.64 389.88 L 197.54 384.74 L 192.44 379.61 L 187.34 374.48 L 182.24 369.35 L 177.14 364.21 L 172.04 359.08 L 166.94 353.95 L 161.83 348.81 L 156.74 343.67 L 151.65 338.51 L 146.59 333.33 L 141.60 328.08 L 136.76 322.73 L 132.19 317.18 L 128.06 311.35 L 124.52 305.18 L 121.66 298.69 L 119.53 291.93 L 118.19 284.97 L 117.65 277.91 L 117.91 270.84 L 118.99 263.84 L 120.87 257.01 L 123.55 250.42 L 127.04 244.15 L 131.33 238.21 L 136.41 232.61 L 142.15 227.31 L 148.29 222.21 L 154.48 217.22 L 160.48 212.24 L 166.24 207.24 L 171.83 202.23 L 177.34 197.20 L 182.82 192.17 L 188.28 187.14 L 193.75 182.11 L 199.24 177.09 L 204.79 172.10 L 210.49 167.21 L 216.53 162.50 L 223.10 158.13 L 230.32 154.26 L 238.17 151.02 L 246.52 148.53 L 255.24 146.81 L 264.21 145.71 L 273.31 144.98 L 282.46 144.42 L 291.60 143.91 L 300.66 143.35 L 309.54 142.67 L 318.14 141.83 L 326.37 140.92 L 334.25 140.25 L 341.81 140.22 L 349.06 141.16 L 355.94 143.17 L 362.36 146.22 L 368.28 150.22 L 373.70 154.97 L 378.72 160.21 L 383.41 165.76 L 387.87 171.49 L 392.21 177.31 L 396.48 183.16 L 400.73 189.03 L 404.97 194.90 L 409.21 200.77 L 413.45 206.63 L 417.69 212.51 L 421.93 218.38 L 426.16 224.25 L 430.40 230.12 L 434.63 235.98 L 438.86 241.85 L 443.09 247.72 L 447.32 253.58 L 451.54 259.45 L 455.75 265.33 L 459.91 271.24 L 463.98 277.20 L 467.90 283.26 L 471.61 289.45 L 475.05 295.78 L 478.18 302.27 L 480.97 308.91 L 483.40 315.69 L 485.47 322.58 L 487.15 329.59 L 488.45 336.67 L 489.36 343.81 L 489.87 351.00 L 490.00 358.20 Z" />
</symbol>
</defs>
<!-- isDone: 0 -->
<rect width="700" height="500" style="fill:#fff;stroke-width:0" />
<use class="p0 borderLine" xlink:href="#bl0"/>
<use class="p1 borderLine" xlink:href="#bl1"/>
<use class="p2 borderLine" xlink:href="#bl2"/>
<use class="q0 outLine" xlink:href="#bl0"/>
<use class="q1 outLine" xlink:href="#bl1"/>
<use class="q2 outLine" xlink:href="#bl2"/>
<circle onclick="fromCircle(4)" class="circle" cx="96.0406" cy="152.6452" r="83.3757" />
<text class="nLabel" x="96.04" y="147.65">573</text>
<text class="belong" x="96.04" y="157.65">(1)</text>
<circle onclick="fromCircle(6)" class="circle" cx="218.0859" cy="116.0756" r="36.3643" />
<text class="nLabel" x="218.09" y="111.08">109</text>
<text class="belong" x="218.09" y="121.08">(1, 2)</text>
<circle onclick="fromCircle(7)" class="circle" cx="251.9639" cy="193.5513" r="43.6427" />
<text class="nLabel" x="251.96" y="188.55">157</text>
<text class="belong" x="251.96" y="198.55">(1, 2, 3)</text>
<circle onclick="fromCircle(2)" class="circle" cx="315.4868" cy="76.1890" r="62.1120" />
<text class="nLabel" x="315.49" y="71.19">318</text>
<text class="belong" x="315.49" y="81.19">(2)</text>
<circle onclick="fromCircle(3)" class="circle" cx="340.8261" cy="181.8002" r="40.3194" />
<text class="nLabel" x="340.83" y="176.80">134</text>
<text class="belong" x="340.83" y="186.80">(2, 3)</text>
<circle onclick="fromCircle(1)" class="circle" cx="358.4753" cy="357.9823" r="129.0617" />
<text class="nLabel" x="358.48" y="352.98">1373</text>
<text class="belong" x="358.48" y="362.98">(3)</text>
<circle onclick="fromCircle(5)" class="circle" cx="179.5448" cy="276.9316" r="59.8237" />
<text class="nLabel" x="179.54" y="271.93">295</text>
<text class="belong" x="179.54" y="281.93">(1, 3)</text>
<g id="legendBox">
<rect class="p0 borderLine" x="500.00" y="50.00" width="30.00" height="15.00" />
<rect class="q0" x="500.00" y="50.00" width="30.00" height="15.00" />
<text class="legend" x="540.00" y="65.00">BM MSC</text>
<rect class="p1 borderLine" x="500.00" y="90.00" width="30.00" height="15.00" />
<rect class="q1" x="500.00" y="90.00" width="30.00" height="15.00" />
<text class="legend" x="540.00" y="105.00">Adip MSC</text>
<rect class="p2 borderLine" x="500.00" y="130.00" width="30.00" height="15.00" />
<rect class="q2" x="500.00" y="130.00" width="30.00" height="15.00" />
<text class="legend" x="540.00" y="145.00">HSPC</text>
</g>
</svg>
